<svg xmlns="http://www.w3.org/2000/svg" xmlns:xlink="http://www.w3.org/1999/xlink" id="Layer_1" x="0px" y="0px" viewBox="0 0 315.4 59.7" style="enable-background:new 0 0 315.4 59.7;" xml:space="preserve"><style type="text/css">	.st0{fill:#FFFFFF;}	.st1{fill:#F2F2F2;}	.st2{opacity:0.7;fill:url(#SVGID_1_);enable-background:new    ;}	.st3{opacity:0.7;fill:url(#SVGID_2_);enable-background:new    ;}</style><g>	<polygon class="st0" points="219.7,57.4 253,57.4 308.1,2.3 274.8,2.3  "></polygon>	<polygon class="st0" points="162.4,57.4 195.7,57.4 250.8,2.3 217.5,2.3  "></polygon>	<polygon class="st1" points="234.5,42.6 219.7,57.4 216,57.4 205.9,47.2 222.5,30.6  "></polygon>	<polygon class="st1" points="264.6,12.4 248,29.1 236,17.1 250.8,2.3 254.5,2.3  "></polygon>	<g>		<rect x="295.7" y="32.6" class="st0" width="12.4" height="12.4"></rect>		<rect x="283.3" y="45" class="st0" width="12.4" height="12.4"></rect>	</g>	<linearGradient id="SVGID_1_" gradientUnits="userSpaceOnUse" x1="256.3275" y1="20.7646" x2="244.3325" y2="8.7696">		<stop offset="0" style="stop-color:#000000;stop-opacity:5.000000e-02"></stop>		<stop offset="1" style="stop-color:#231F20;stop-opacity:0.5"></stop>	</linearGradient>	<polygon class="st2" points="264.6,12.4 248,29.1 236,17.1 250.8,2.3 254.5,2.3  "></polygon>	<linearGradient id="SVGID_2_" gradientUnits="userSpaceOnUse" x1="214.1725" y1="38.9196" x2="226.1675" y2="50.9146">		<stop offset="0" style="stop-color:#000000;stop-opacity:5.000000e-02"></stop>		<stop offset="1" style="stop-color:#231F20;stop-opacity:0.5"></stop>	</linearGradient>	<polygon class="st3" points="234.5,42.6 219.7,57.4 216,57.4 205.9,47.2 222.5,30.6  "></polygon></g><g>	<g>		<path class="st0" d="M31.9,15.9c0-0.6,0-0.9-1.2-1.2l3.6-0.6v6.6c0,4.8-0.5,10.1-6.4,10.1c-0.4,0-1,0-2-0.1c3.8-1,5.8-2.9,6-8   V15.9z"></path>		<g>			<path class="st0" d="M53.2,11.4c0.7,0,1.4-0.6,1.4-1.4c0-0.7-0.6-1.4-1.4-1.4c-0.7,0-1.4,0.6-1.4,1.4    C51.9,10.7,52.3,11.4,53.2,11.4z"></path>			<path class="st0" d="M49.4,11.4c0.7,0,1.4-0.6,1.4-1.4c0-0.7-0.6-1.4-1.4-1.4c-0.9,0-1.4,0.6-1.4,1.4    C48.1,10.7,48.5,11.4,49.4,11.4z"></path>			<path class="st0" d="M74.7,9.5c1.2,0.5,1.2,0.6,1.2,1.2v11.2c0,1.6-0.6,2.6-2.1,2.6h-0.1h-4.4c-1.2,0-1.5-0.5-1.6-0.6    c2.2-1.2,4.9-2.5,4.9-5c0-2.9-2.3-4.7-5.6-4.7c-1.8,0-3.4,0.4-6.4,2.2c0.7,1,4.5,6.4,5.2,7.4c-0.3,0.2-1.1,0.7-2.6,0.7h-9.5    c-0.5,0-1.2-0.4-1.6-0.6c2.3-1.4,5-2.5,5-5.4c0-2.5-2.3-4.5-5.5-4.5c-3.2,0-5.6,2-5.6,4.5c0,2.6,1.7,4,3.9,5.4    c-0.6,0.4-1.1,0.6-2.1,0.6h-5.3c-1.1,0-1.7-0.9-1.7-2.2V8.9l-3.4,0.8c0.6,0,1.1,0.6,1.1,1.2l0.1,11.7c0,2.6,1.7,3.3,3.9,3.3h5.8    c1.7,0,2.4-0.8,2.9-1.1c0.5,0.4,1.2,1.1,2.9,1.1l10.3,0c1.2,0,1.8-0.7,2.2-1c0.4,0.4,0.9,1,1.7,1h6.1c2.3,0,3.9-1.2,3.9-3.4V8.9    L74.7,9.5z M48.3,18.2c0-1.8,1.4-3.3,3.1-3.3c1.7,0,3.1,1.5,3.1,3.3c0,3.2-3.1,5-3.1,5S48.3,22.1,48.3,18.2z M62.8,16.5    c1.4-0.7,2.4-1.2,4-1.2c1.4,0,2.6,0.8,3.2,1.9c1,1.7,0,3.6-1,4.4c-0.6,0.4-1.2,0.8-2,1.3C66.2,21.8,63.7,18,62.8,16.5z"></path>		</g>		<path class="st0" d="M81.8,10.7c0-0.6,0-0.7-1.1-1.2l3.4-0.6v16.9h-2.3V10.7z"></path>		<g>			<path class="st0" d="M134.1,28.3c-0.9,0-1.4,0.6-1.4,1.4c0,0.7,0.5,1.4,1.4,1.4c0.7,0,1.4-0.6,1.4-1.4    C135.4,28.9,134.9,28.3,134.1,28.3z"></path>			<path class="st0" d="M138,28.3c-0.7,0-1.4,0.6-1.4,1.4c0,0.7,0.6,1.4,1.4,1.4c0.7,0,1.4-0.6,1.4-1.4    C139.3,28.9,138.7,28.3,138,28.3z"></path>			<path class="st0" d="M144.5,9.4c1.2,0.5,1.2,0.6,1.2,1.2v11.3c0,1.6-0.6,2.6-2.1,2.6h-1.7c-1.8,0-2.9-2.3-2.9-4.1v-6.4l-3.6,0.6    c1.1,0.4,1.2,0.5,1.2,1.1V22c0,1.5-0.6,2.5-2,2.5h-24.6h-0.7c-1.2,0-2.2-0.6-2.6-1.8c0.2-0.9,0.4-1.5,0.4-2.2    c0-2.6-1.7-5.8-5-5.8c-3.9,0-4.8,2.8-5.5,5.4c-0.6,2.1-1.2,4.1-3.2,4.1c-0.5,0-2-0.5-2.3-0.6c0.1,0.1,1,1.1,1.6,1.6    c0.4,0.4,0.7,0.6,1,0.9c2,0,3.1-1.4,3.7-2.3c0.7,1,1.8,2.2,4.3,2.2c2.1,0,3.6-0.9,4.5-2.1c0.9,1.5,2,2.1,3.7,2.1h25    c1.6,0,3.3-0.5,3.9-2.1c0.9,1.2,2.3,2.1,3.6,2.1l1.7,0c2.3,0,3.9-1.2,3.9-3.4V8.8L144.5,9.4z M101.8,24.5c-2.2,0-3.7-2.1-3.7-2.1    c0.5-1,0.7-2,1-2.9c0.6-2,1.1-3.7,2.8-3.7c2.1,0,3.1,2.2,3.1,4.5C105,22.8,103.5,24.5,101.8,24.5z"></path>		</g>		<path class="st0" d="M151.5,10.7c0-0.6,0-0.7-1.1-1.2l3.4-0.6v16.9h-2.3L151.5,10.7L151.5,10.7z"></path>		<g>			<path class="st0" d="M23.2,28.3c-0.7,0-1.4,0.6-1.4,1.4c0,0.7,0.6,1.4,1.4,1.4c0.7,0,1.4-0.6,1.4-1.4    C24.6,28.9,23.9,28.3,23.2,28.3z"></path>			<path class="st0" d="M19.4,28.3c-0.9,0-1.4,0.6-1.4,1.4c0,0.7,0.5,1.4,1.4,1.4c0.7,0,1.4-0.6,1.4-1.4    C20.8,28.9,20.1,28.3,19.4,28.3z"></path>			<path class="st0" d="M21.6,14.7c1.2,0.4,1.2,0.6,1.2,1.2v6c0,1.6-0.6,2.6-2,2.6l-3.6,0c-1.2-0.1-1.4-1.4-1.4-2.1V16    c0-0.6,0.1-1.2,0.2-2h-1.4c-0.2,0.1-0.5,1-0.5,1s-0.2,0-0.5-0.2c-0.6-0.5-1.7-1.1-3.2-1.1c-3.3,0-5.4,2.9-5.4,6    c0,3.3,2.1,6.1,4.9,6.1c2.2,0,3.4-1.7,3.8-2.8c0,2.5,1.5,2.8,3.3,2.8h4.1c2.2,0,3.8-1.2,3.8-3.4v-8.3L21.6,14.7z M10.5,24.5    c-1.6,0-2.9-2.2-2.9-4.9c0-2.7,1.3-4.9,2.9-4.9s2.9,2.2,2.9,4.9C13.4,22.3,12.1,24.5,10.5,24.5z"></path>			<path class="st0" d="M9.1,11.7c0.7,0,1.4-0.6,1.4-1.4C10.5,9.6,9.9,9,9.1,9c-0.9,0-1.4,0.6-1.4,1.4C7.8,11.1,8.3,11.7,9.1,11.7z"></path>			<path class="st0" d="M12.9,11.7c0.7,0,1.4-0.6,1.4-1.4c0-0.7-0.6-1.4-1.4-1.4c-0.7,0-1.4,0.6-1.4,1.4    C11.6,11.1,12.2,11.7,12.9,11.7z"></path>		</g>	</g>	<path class="st0" d="M132,10c-3.9,1.5-8.6,3.2-12.5,4.6l-0.1,0l0.4-1c4.5-1.6,9.2-3.3,12.6-4.6l0.1,0L132,10z"></path>	<g>		<path class="st0" d="M12.4,46.9l-1.2-3.3H7.7l-1.2,3.3H5.5l3.6-9.4h1.1l3.4,9.4H12.4z M11,42.9l-1.5-4.3l-1.6,4.3H11z"></path>		<path class="st0" d="M17.2,46.9v-9.2h1.2V46h3.5l-0.1,0.9H17.2z"></path>		<path class="st0" d="M28.5,46.9h-1.2v-3.5l-3.2-5.7h1.4l2.6,4.9l2.4-4.9h0.9l-2.9,5.7V46.9z"></path>		<path class="st0" d="M39.9,46.9H35v-9.4h4.7l-0.1,0.9h-3.4v3.3h3.2l-0.1,0.7h-3.1V46H40L39.9,46.9z"></path>		<path class="st0" d="M53.1,46.9l-0.8-7l-3.2,7h-0.6l-3.5-7l-0.6,7h-0.8l0.9-9.3h0.8l3.7,7.6l3.5-7.6h0.8l1,9.3H53.1z"></path>		<path class="st0" d="M66.3,43H65v3.9h-1.2v-9.4c0.4,0,2.2,0,2.6,0c1.9,0,3.1,1.3,3.1,2.7c0,2-1.7,2.6-1.9,2.8   c0.3,0.5,1.2,2,1.5,2.5c0.2,0.3,0.5,0.6,0.8,0.8s1,0.3,1,0.3v0.4c0,0-1,0-1.2,0c-0.8,0-1.2-0.4-1.4-0.7C67.6,45.4,66.3,43,66.3,43   z M66.1,42.3c1.4,0,2-1,2-2.1c0-1-0.8-1.9-1.9-1.9c-0.5,0-1.3,0-1.3,0v4C65,42.3,65.5,42.3,66.1,42.3z"></path>		<path class="st0" d="M79.2,46.9h-4.9v-9.4H79l-0.1,0.9h-3.4v3.3h3.2l-0.1,0.7h-3.1V46h3.8L79.2,46.9z"></path>		<path class="st0" d="M89,46.9l-1.2-3.3h-3.5l-1.2,3.3h-0.9l3.6-9.4h1.1l3.4,9.4H89z M87.7,42.9l-1.5-4.3l-1.6,4.3H87.7z"></path>		<path class="st0" d="M93.8,46.9v-9.4h1.2V46h3.5l-0.1,0.9H93.8z"></path>		<path class="st0" d="M107.5,46.9h-4.9v-9.4h4.7l-0.1,0.9h-3.4v3.3h3.2l-0.1,0.7h-3.1V46h3.8L107.5,46.9z"></path>		<path class="st0" d="M116.6,44.2c0,1.6-1.2,2.8-3.1,2.8c-1.3,0-2.2-0.5-2.6-0.7l0.4-1.1c0.1,0.1,1.3,0.9,2.4,0.9   c1.2,0,1.8-0.6,1.8-1.6c0-0.3-0.1-0.5-0.2-0.7c-0.1-0.2-0.3-0.4-0.5-0.5s-0.4-0.3-0.7-0.4c-0.3-0.1-0.5-0.2-0.8-0.3   c-0.3-0.1-0.5-0.2-0.8-0.4c-0.3-0.1-0.5-0.3-0.7-0.5c-0.2-0.2-0.4-0.4-0.5-0.7c-0.1-0.3-0.2-0.6-0.2-1c0-1.8,1.6-2.4,2.9-2.4   c0.9,0,1.7,0.2,2,0.2l-0.3,1.1c-0.3-0.1-0.7-0.2-1.1-0.3c-0.4-0.1-0.7-0.1-1-0.1c-0.8,0-1.5,0.5-1.5,1.3c0,0.3,0.1,0.5,0.2,0.7   c0.1,0.2,0.3,0.3,0.5,0.5c0.2,0.1,0.4,0.3,0.7,0.4c0.3,0.1,0.5,0.2,0.8,0.3c0.3,0.1,0.5,0.2,0.8,0.4c0.3,0.1,0.5,0.3,0.7,0.5   c0.2,0.2,0.4,0.4,0.5,0.7C116.6,43.5,116.6,43.8,116.6,44.2z"></path>		<path class="st0" d="M122.5,46.9v-8.5h-2.8l0.1-0.9h6.8l-0.1,0.9h-2.7v8.5H122.5z"></path>		<path class="st0" d="M135.3,46.9l-1.1-3.3h-3.6l-1.2,3.3h-0.9l3.6-9.4h1.1l3.4,9.4H135.3z M133.9,42.9l-1.5-4.3l-1.6,4.3H133.9z"></path>		<path class="st0" d="M141.2,46.9v-8.5h-2.8l0.1-0.9h6.8l-0.1,0.9h-2.7v8.5H141.2z"></path>		<path class="st0" d="M153.8,46.9h-4.9v-9.4h4.7l-0.1,0.9h-3.4v3.3h3.2l-0.1,0.7h-3.1V46h3.8L153.8,46.9z"></path>	</g></g></svg>